<svg xmlns="http://www.w3.org/2000/svg" viewBox="0 0 13.87 7.47"><defs><style>.cls-1{fill:#231f20;}</style></defs><g id="Layer_2" data-name="Layer 2"><g id="Layer_1-2" data-name="Layer 1"><path class="cls-1" d="M10.58,0H6.08l.25.72A1.56,1.56,0,0,0,7.81,1.78h2.73c.85,0,1.27.54,1.27,1.62v.65c0,1.09-.42,1.62-1.27,1.62H7.92a.48.48,0,0,1-.45-.32L5.82.83A1.26,1.26,0,0,0,4.63,0h-1A1.26,1.26,0,0,0,2.42.83L0,7.47H1.23a1.57,1.57,0,0,0,1.5-1.1L4.06,2.09h0L5.44,6.52a1.33,1.33,0,0,0,1.28,1h3.86c2.2,0,3.29-1.24,3.29-3.73S12.78,0,10.58,0Z"/></g></g></svg>